<?xml version="1.0" encoding="utf-8"?>
<!-- Generator: Adobe Illustrator 16.0.0, SVG Export Plug-In . SVG Version: 6.00 Build 0)  -->
<!DOCTYPE svg PUBLIC "-//W3C//DTD SVG 1.1//EN" "http://www.w3.org/Graphics/SVG/1.1/DTD/svg11.dtd">
<svg version="1.1" id="Layer_1" xmlns="http://www.w3.org/2000/svg" xmlns:xlink="http://www.w3.org/1999/xlink" x="0px" y="0px"
	 width="157px" height="95px" viewBox="0 0 157 95" enable-background="new 0 0 157 95" xml:space="preserve">
<g>
	<rect fill="#008D9A" width="157" height="95"/>
	<g>
		<g>
			<g>
				<path fill="#FFFFFF" d="M41.688,77.295v-5.174h0.442v5.148c0,2.418,1.3,3.691,3.275,3.691c1.964,0,3.237-1.222,3.237-3.666
					v-5.174h0.442v5.135c0,2.717-1.495,4.108-3.692,4.108C43.209,81.364,41.688,79.986,41.688,77.295z"/>
				<path fill="#FFFFFF" d="M50.731,80.987l4.889-5.941H50.9v-0.377h5.33v0.233l-4.875,5.941h4.901v0.377h-5.525V80.987z"/>
				<path fill="#FFFFFF" d="M57.564,80.987l4.889-5.941h-4.72v-0.377h5.33v0.233l-4.875,5.941h4.901v0.377h-5.525V80.987z"/>
				<path fill="#FFFFFF" d="M64.682,72.068h0.56v0.793h-0.56V72.068z M64.747,74.669h0.429v6.552h-0.429V74.669z"/>
				<path fill="#FFFFFF" d="M67.539,74.669h0.416v1.56c0.299-0.779,1.118-1.715,2.522-1.715c1.729,0,2.704,1.17,2.704,2.873v3.834
					h-0.416v-3.77c0-1.521-0.819-2.549-2.341-2.549c-1.378,0-2.47,1.132-2.47,2.627v3.691h-0.416V74.669z"/>
				<path fill="#FFFFFF" d="M75.387,72.068h0.56v0.793h-0.56V72.068z M75.452,74.669h0.429v6.552h-0.429V74.669z"/>
				<path fill="#FFFFFF" d="M81.444,74.669h0.48l2.691,6.097l2.704-6.097h0.455l-2.99,6.604h-0.338L81.444,74.669z"/>
				<path fill="#FFFFFF" d="M88.745,79.375V79.35c0-1.365,1.235-2.106,2.899-2.106c0.909,0,1.703,0.155,2.34,0.364v-0.442
					c0-1.481-0.884-2.21-2.34-2.21c-0.807,0-1.482,0.221-2.133,0.546l-0.155-0.364c0.728-0.351,1.442-0.572,2.313-0.572
					c0.897,0,1.6,0.234,2.08,0.715c0.416,0.43,0.65,1.054,0.65,1.859v4.082h-0.416v-1.365c-0.338,0.716-1.248,1.521-2.756,1.521
					C89.967,81.377,88.745,80.701,88.745,79.375z M93.997,78.803v-0.806c-0.637-0.208-1.391-0.364-2.366-0.364
					c-1.442,0-2.443,0.611-2.443,1.69v0.026c0,1.078,0.975,1.638,2.066,1.638C92.84,80.987,93.997,79.973,93.997,78.803z"/>
				<path fill="#FFFFFF" d="M96.62,72.068h0.56v0.793h-0.56V72.068z M96.686,74.669h0.429v6.552h-0.429V74.669z"/>
				<path fill="#FFFFFF" d="M99.478,74.669h0.416v2.002c0.39-1.118,1.391-2.171,2.782-2.132v0.429h-0.065
					c-1.586,0-2.717,1.534-2.717,3.146v3.106h-0.416V74.669z"/>
				<path fill="#FFFFFF" d="M103.667,79.375V79.35c0-1.365,1.235-2.106,2.899-2.106c0.909,0,1.703,0.155,2.34,0.364v-0.442
					c0-1.481-0.884-2.21-2.34-2.21c-0.807,0-1.482,0.221-2.133,0.546l-0.155-0.364c0.728-0.351,1.442-0.572,2.313-0.572
					c0.897,0,1.6,0.234,2.08,0.715c0.416,0.43,0.65,1.054,0.65,1.859v4.082h-0.416v-1.365c-0.338,0.716-1.248,1.521-2.756,1.521
					C104.889,81.377,103.667,80.701,103.667,79.375z M108.919,78.803v-0.806c-0.637-0.208-1.391-0.364-2.366-0.364
					c-1.442,0-2.443,0.611-2.443,1.69v0.026c0,1.078,0.975,1.638,2.066,1.638C107.762,80.987,108.919,79.973,108.919,78.803z
					 M104.928,72.758h3.563v0.391h-3.563V72.758z"/>
				<path fill="#FFFFFF" d="M111.686,71.73h0.416v7.177l4.355-4.238h0.559L114,77.568l3.172,3.652h-0.521l-2.938-3.367l-1.612,1.547
					v1.82h-0.416V71.73z"/>
			</g>
		</g>
		<g>
			<path fill="#FFFFFF" d="M95.939,40.976c0,9.289-7.598,16.887-16.887,16.887c-9.29,0-16.885-7.598-16.885-16.887
				c0-9.291,7.596-16.883,16.885-16.883c1.689,0,3.164,0.207,4.648,0.627l3.371-3.379c-2.535-0.852-5.277-1.477-8.02-1.477
				c-11.608,0-21.114,9.506-21.114,21.111c0,11.607,9.506,21.113,21.114,21.113c11.607,0,21.113-9.506,21.113-21.113H95.939z"/>
			<path fill="#FFFFFF" d="M95.939,40.976"/>
			<polygon fill="#FFFFFF" points="95.377,27.876 87.602,28.793 89.553,30.743 71.816,48.484 74.775,51.439 92.507,33.697 
				94.463,35.652 			"/>
		</g>
	</g>
</g>
</svg>
