<?xml version="1.0" encoding="utf-8"?>
<!-- Generator: Adobe Illustrator 16.0.0, SVG Export Plug-In . SVG Version: 6.00 Build 0)  -->
<!DOCTYPE svg PUBLIC "-//W3C//DTD SVG 1.1//EN" "http://www.w3.org/Graphics/SVG/1.1/DTD/svg11.dtd">
<svg version="1.1" id="Layer_1" xmlns="http://www.w3.org/2000/svg" xmlns:xlink="http://www.w3.org/1999/xlink" x="0px" y="0px"
	 width="180px" height="95px" viewBox="0 0 180 95" enable-background="new 0 0 180 95" xml:space="preserve">
<g>
	<rect fill="#E93469" width="180" height="95"/>
	<g>
		<g>
			<path fill="#FFFFFF" d="M90.929,19.864c-11.661,0-21.114,9.453-21.114,21.113c0,11.661,9.453,21.113,21.114,21.113
				s21.114-9.452,21.114-21.113C112.043,29.317,102.59,19.864,90.929,19.864z M90.929,57.862c-9.325,0-16.885-7.56-16.885-16.885
				c0-9.324,7.56-16.885,16.885-16.885c9.325,0,16.884,7.561,16.884,16.885C107.813,50.303,100.254,57.862,90.929,57.862z"/>
			<rect x="80.379" y="38.558" fill="#FFFFFF" width="21.096" height="4.838"/>
			<rect x="88.51" y="30.431" fill="#FFFFFF" width="4.838" height="21.095"/>
			<path fill="#FFFFFF" d="M107.816,40.977"/>
		</g>
		<g>
			<g>
				<path fill="#FFFFFF" d="M41.339,72.122h3.25c2.133,0,3.445,1.027,3.445,2.757v0.025c0,1.82-1.469,2.821-3.549,2.821h-2.704
					v3.497h-0.442V72.122z M44.498,77.31c1.885,0,3.095-0.884,3.095-2.392v-0.026c0-1.495-1.171-2.366-3.043-2.366h-2.769v4.784
					H44.498z"/>
				<path fill="#FFFFFF" d="M49.221,79.377v-0.026c0-1.365,1.235-2.106,2.899-2.106c0.91,0,1.703,0.156,2.34,0.364v-0.442
					c0-1.481-0.884-2.209-2.34-2.209c-0.807,0-1.482,0.221-2.133,0.545l-0.155-0.363c0.728-0.352,1.442-0.572,2.313-0.572
					c0.897,0,1.6,0.234,2.08,0.715c0.416,0.43,0.65,1.053,0.65,1.859v4.082H54.46v-1.365c-0.338,0.715-1.248,1.521-2.756,1.521
					C50.442,81.379,49.221,80.703,49.221,79.377z M54.473,78.805v-0.807c-0.637-0.207-1.391-0.363-2.366-0.363
					c-1.442,0-2.443,0.611-2.443,1.689v0.026c0,1.079,0.975,1.638,2.066,1.638C53.315,80.988,54.473,79.975,54.473,78.805z"/>
				<path fill="#FFFFFF" d="M57.139,74.67h0.416v1.808c0.455-1.093,1.469-1.963,2.899-1.963c1.768,0,3.237,1.417,3.237,3.419v0.025
					c0,1.99-1.47,3.42-3.237,3.42c-1.443,0-2.457-0.858-2.899-1.938v3.861h-0.416V74.67z M63.249,77.973v-0.026
					c0-1.729-1.209-3.028-2.834-3.028c-1.612,0-2.887,1.326-2.887,3.016v0.025c0,1.69,1.287,3.017,2.887,3.017
					C62.065,80.976,63.249,79.728,63.249,77.973z"/>
				<path fill="#FFFFFF" d="M65.598,72.07h0.56v0.793h-0.56V72.07z M65.663,74.67h0.429v6.553h-0.429V74.67z"/>
				<path fill="#FFFFFF" d="M68.497,71.732h0.429v9.49h-0.429V71.732z"/>
				<path fill="#FFFFFF" d="M70.902,77.959v-0.025c0-1.989,1.469-3.419,3.237-3.419c1.442,0,2.457,0.858,2.898,1.937v-4.719h0.416
					v9.49h-0.416v-1.807c-0.455,1.092-1.469,1.963-2.898,1.963C72.371,81.379,70.902,79.961,70.902,77.959z M77.064,77.959v-0.025
					c0-1.689-1.287-3.016-2.886-3.016c-1.651,0-2.835,1.248-2.835,3.002v0.026c0,1.729,1.209,3.029,2.835,3.029
					C75.79,80.976,77.064,79.649,77.064,77.959z"/>
				<path fill="#FFFFFF" d="M79.709,78.506V74.67h0.416v3.771c0,1.521,0.819,2.548,2.34,2.548c1.378,0,2.471-1.131,2.471-2.626
					V74.67h0.416v6.553h-0.416v-1.561c-0.3,0.78-1.118,1.717-2.522,1.717C80.684,81.379,79.709,80.209,79.709,78.506z"/>
				<path fill="#FFFFFF" d="M86.976,80.988l4.889-5.941h-4.72V74.67h5.33v0.234L87.6,80.846h4.901v0.377h-5.525V80.988z"/>
				<path fill="#FFFFFF" d="M93.294,77.959v-0.025c0-1.989,1.469-3.419,3.237-3.419c1.442,0,2.457,0.858,2.898,1.937v-4.719h0.416
					v9.49H99.43v-1.807c-0.455,1.092-1.469,1.963-2.898,1.963C94.763,81.379,93.294,79.961,93.294,77.959z M99.456,77.959v-0.025
					c0-1.689-1.287-3.016-2.887-3.016c-1.65,0-2.834,1.248-2.834,3.002v0.026c0,1.729,1.209,3.029,2.834,3.029
					C98.182,80.976,99.456,79.649,99.456,77.959z"/>
				<path fill="#FFFFFF" d="M101.796,77.946V77.92c0-1.924,1.326-3.405,3.133-3.405c1.977,0,3.004,1.69,3.004,3.444v0.144h-5.682
					c0.078,1.781,1.339,2.886,2.809,2.886c1.014,0,1.833-0.533,2.353-1.209l0.313,0.247c-0.599,0.78-1.482,1.353-2.679,1.353
					C103.278,81.379,101.796,80.039,101.796,77.946z M107.478,77.726c-0.065-1.431-0.937-2.821-2.574-2.821
					c-1.482,0-2.574,1.209-2.652,2.821H107.478z"/>
				<path fill="#FFFFFF" d="M108.79,74.67h0.48l2.691,6.098l2.704-6.098h0.455l-2.99,6.604h-0.338L108.79,74.67z"/>
				<path fill="#FFFFFF" d="M116.656,78.506V74.67h0.416v3.771c0,1.521,0.819,2.548,2.34,2.548c1.378,0,2.471-1.131,2.471-2.626
					V74.67h0.416v6.553h-0.416v-1.561c-0.3,0.78-1.118,1.717-2.522,1.717C117.631,81.379,116.656,80.209,116.656,78.506z"/>
				<path fill="#FFFFFF" d="M124.639,74.67h0.416v1.47c0.286-0.767,1.066-1.625,2.236-1.625c1.313,0,2.028,0.793,2.313,1.729
					c0.325-0.859,1.157-1.729,2.354-1.729c1.495,0,2.483,1.014,2.483,2.795v3.913h-0.416v-3.874c0-1.586-0.832-2.444-2.094-2.444
					c-1.118,0-2.184,1.014-2.184,2.496v3.822h-0.416v-3.887c0-1.561-0.845-2.432-2.08-2.432c-1.145,0-2.197,1.092-2.197,2.51v3.809
					h-0.416V74.67z"/>
				<path fill="#FFFFFF" d="M136.046,80.377l0.247-0.324c0.729,0.572,1.6,0.896,2.444,0.896c1.053,0,1.872-0.559,1.872-1.365v-0.025
					c0-0.923-0.988-1.209-1.989-1.482c-1.222-0.351-2.274-0.688-2.274-1.781V76.27c0-0.975,0.896-1.717,2.235-1.717
					c0.754,0,1.612,0.261,2.302,0.729l-0.234,0.352c-0.624-0.442-1.391-0.689-2.08-0.689c-1.079,0-1.794,0.559-1.794,1.287v0.025
					c0,0.82,0.923,1.119,1.989,1.418c1.195,0.324,2.274,0.701,2.274,1.846v0.025c0,1.08-1.014,1.795-2.327,1.795
					C137.775,81.34,136.762,80.976,136.046,80.377z"/>
			</g>
		</g>
	</g>
</g>
</svg>
